<svg id="Capa_1" data-name="Capa 1" xmlns="http://www.w3.org/2000/svg" viewBox="0 0 1000 1000"><defs><style>.cls-1{fill:#fff;}</style></defs><path d="M534.16,1000h-66c-5.69-.75-11.37-1.6-17.08-2.23-111.39-12.43-207.91-55.54-287.14-130.68C47,756.21-4.08,620.82,5.8,464.61,12.3,361.74,47.94,268.26,115,187.37,222.75,57.49,363.36-7.32,538.83,3.69c106.85,6.7,200.89,45.75,279.9,113.67,135.44,116.41,192.08,263.6,176.7,435.4C986,658.41,944,752.6,871.56,833.61,798.46,915.38,707,969,596,990.76,575.56,994.77,554.77,997,534.16,1000ZM95.28,442h812.1C881.56,250,724.56,110.43,565.1,90.11v10.74c0,27.45.31,54.9-.19,82.34-.15,8.18,1.4,12.7,10.64,15.57s17.89,8.31,26,13.76c23.9,16.17,37.24,37.54,36,66.48-.9,20.55-.17,41.16-.17,61.75v16.38H601.94V413H548.16V357.27H463.81v55.58H412.1V356.5H365c0-26.52-.08-52,.06-77.41,0-6.5,0-13.16,1.33-19.47,5.79-26.88,25-43.58,49.13-55.84,10.14-5.16,21.13-8.81,31.46-13V88.5C273.51,107.3,118.43,256.7,95.28,442Zm270,209.67h272c0,28.8.05,56.89-.06,85A55.7,55.7,0,0,1,636,748.26c-5.67,26.17-23.33,45-47.66,54.29-21.93,8.34-24.71,20.85-23.54,39.76,1.43,23.07.34,46.27.34,69.5,62.88-6.72,142.57-41.46,200-91.71,64-56,107.73-123.53,130.55-203.73H106.56c28,94.72,81.92,171.53,164.3,229.51,52.31,36.82,111,59.55,176.67,68.23,0-30.22-.27-59,.19-87.66.12-7.32-1.76-11-9.56-13.19a119.45,119.45,0,0,1-48.61-26.71c-13.34-12-23.45-26.36-24-44.16C364.6,712.38,365.28,682.33,365.28,651.65ZM231,540.28l-1.9.55c-7.64-11.78-16-23.19-22.69-35.46-5.16-9.5-12.1-10.91-21.65-8.59V568h15.15V526.36c9.12,10.72,17.23,21.3,23.23,32.86,5.11,9.83,12.24,10.45,21.53,8.7V496.43H231Zm302.82-13.76,2.2-.47c7.23,11.08,15.28,21.78,21.43,33.38,5.17,9.74,12.21,10.56,21.58,8.18V496.56H564.59v46.36c-9.27-14.31-17.58-25.6-24.12-37.74-5.21-9.67-12.28-10.51-21.8-8.32v71h15.17ZM850,568.12V523c9.14,13.87,17.41,24.79,23.78,36.64,5.27,9.78,12.3,10.4,21.49,7.92v-71H880.73v42.82a214.21,214.21,0,0,1-24.8-35c-5.19-9.35-12-9.8-20.76-7.32v71.08ZM505.29,530.18c0-18-9.66-31.58-26.93-35.48-18.78-4.24-35.65,2.74-43.39,18-8.78,17.24-4.6,41,9.72,51.05,12.65,8.91,27,9.47,40.91,3.44C500.85,560.56,505.72,547.68,505.29,530.18Zm-371.2,40.33c23.88.06,37.77-13.89,37.81-38S158.11,494,134.51,494c-23.4,0-37.47,14.48-37.45,38.53C97.07,556,111.2,570.45,134.09,570.51Zm491.64-74.43v72.46c11.18,0,21.73.13,32.28,0,18-.26,27.9-9,31.47-27.28,3.83-19.61-4-37.81-18.89-43.28a27.93,27.93,0,0,0-8.94-1.78C650,496,638.39,496.08,625.73,496.08Zm355,71.38C972,544.85,963.84,522.11,954,500.05c-1.37-3.08-11-3.49-16.93-3.74-2.62-.12-6.85,2.66-7.88,5.08-5,11.74-9.13,23.8-13.59,35.75-3.8,10.17-7.62,20.34-11.5,30.67,11,2,19.08,1.53,20.53-10.33.2-1.65,2.8-4.27,4.39-4.34,8.89-.4,17.82-.32,26.72,0,1.3.05,3.35,2.28,3.61,3.74C961.34,568.22,968.55,570.82,980.77,567.46Zm-662.93-71H261.12v71.29h58V556.55H278V535h36.92V523.13H277.67V507.65h40.17Zm77.83,70.72c-7.2-10.46-14.64-20.54-21.1-31.16-1.68-2.77-1.65-8,0-10.8,5.63-9.57,12.34-18.56,18.61-27.75-20-8-23,9.79-32.21,18.6-8.92-9.42-12.53-26.23-32.37-18.67,6.42,9.32,13.17,18.29,18.8,27.84,1.67,2.83,1.64,8.12-.08,10.92-6.5,10.59-14,20.62-22,32.13,7,0,14.26,2.1,17.22-.42,7.1-6,12.17-14.27,18.42-22.07C371.27,555,373.11,575.2,395.67,567.21ZM73.08,540.83c-1.43,3-1.89,6.14-3.77,7.53-4.36,3.24-9.54,8-14.14,7.76-5.12-.26-12-4.28-14.52-8.57-6.08-10.38-5.74-22.07-.23-32.85,5.24-10.25,21.22-12.58,27.42-3.4,5.91,8.77,11.78,6,18.86,3.69-5.07-16.26-18.79-23.61-37.91-20.65C30,497.24,19.67,512.4,20.6,535.88c.7,17.67,13.54,31.19,30.44,32.65,17.75,1.53,33.21-6,35.53-23.67Zm723.56-43.67c-12.46-3.63-18.24-.08-21.08,10.81-3.33,12.78-8.64,25.1-13.87,39.81-5.5-14.83-10.22-27.61-15-40.38-5-13.4-5.07-13.42-20.85-9.9,8.46,22.32,16.72,44.65,25.63,66.74.88,2.18,5.7,4,8.73,4,3.51.05,9.36-1.17,10.24-3.3C779.62,542.6,788,519.94,796.64,497.16Zm-94.19-.89v71.66h14.63V496.27Zm-298.21.19v71.36h14.59V496.46Zm414.82,71.72V496.51H804.33v71.67ZM481.55,473.59c-16.86-2.45-17.1-2.29-22.34,14C472,490.43,474.16,479.22,481.55,473.59Z" transform="translate(0)"/><path class="cls-1" d="M534.16,1000c20.61-3,41.4-5.23,61.8-9.24C707,969,798.46,915.38,871.56,833.61,944,752.6,986,658.41,995.43,552.76c15.38-171.8-41.26-319-176.7-435.4-79-67.92-173.05-107-279.9-113.67C363.36-7.32,222.75,57.49,115,187.37,47.94,268.26,12.3,361.74,5.8,464.61-4.08,620.82,47,756.21,163.94,867.09c79.23,75.14,175.75,118.25,287.14,130.68,5.71.63,11.39,1.48,17.08,2.23H0V0H1000V1000Z" transform="translate(0)"/><path class="cls-1" d="M95.28,442C118.43,256.7,273.51,107.3,447,88.5V190.75c-10.33,4.22-21.32,7.87-31.46,13-24.14,12.26-43.34,29-49.13,55.84-1.37,6.31-1.3,13-1.33,19.47C365,304.53,365,330,365,356.5H412.1v56.35h51.71V357.27h84.35V413h53.78V357.13H637.3V340.75c0-20.59-.73-41.2.17-61.75,1.27-28.94-12.07-50.31-36-66.48-8.06-5.45-16.7-10.89-26-13.76s-10.79-7.39-10.64-15.57c.5-27.44.19-54.89.19-82.34V90.11C724.56,110.43,881.56,250,907.38,442Z" transform="translate(0)"/><path class="cls-1" d="M365.28,651.65c0,30.68-.68,60.73.26,90.74.56,17.8,10.67,32.11,24,44.16a119.45,119.45,0,0,0,48.61,26.71c7.8,2.15,9.68,5.87,9.56,13.19-.46,28.71-.19,57.44-.19,87.66-65.63-8.68-124.36-31.41-176.67-68.23-82.38-58-136.3-134.79-164.3-229.51H895.68c-22.82,80.2-66.57,147.77-130.55,203.73-57.46,50.25-137.15,85-200,91.71,0-23.23,1.09-46.43-.34-69.5-1.17-18.91,1.61-31.42,23.54-39.76,24.33-9.25,42-28.12,47.66-54.29a55.7,55.7,0,0,0,1.27-11.64c.11-28.08.06-56.17.06-85Z" transform="translate(0)"/><path class="cls-1" d="M231,540.28V496.43h13.67v71.49c-9.29,1.75-16.42,1.13-21.53-8.7-6-11.56-14.11-22.14-23.23-32.86V568H184.78V496.78c9.55-2.32,16.49-.91,21.65,8.59,6.66,12.27,15,23.68,22.69,35.46Z" transform="translate(0)"/><path class="cls-1" d="M533.84,526.52v41.34H518.67v-71c9.52-2.19,16.59-1.35,21.8,8.32,6.54,12.14,14.85,23.43,24.12,37.74V496.56h14.46v71.05c-9.37,2.38-16.41,1.56-21.58-8.18-6.15-11.6-14.2-22.3-21.43-33.38Z" transform="translate(0)"/><path class="cls-1" d="M850,568.12H835.17V497c8.72-2.48,15.57-2,20.76,7.32a214.21,214.21,0,0,0,24.8,35V496.52h14.55v71c-9.19,2.48-16.22,1.86-21.49-7.92C867.42,547.75,859.15,536.83,850,523Z" transform="translate(0)"/><path class="cls-1" d="M505.29,530.18c.43,17.5-4.44,30.38-19.69,37-13.92,6-28.26,5.47-40.91-3.44-14.32-10.09-18.5-33.81-9.72-51.05,7.74-15.23,24.61-22.21,43.39-18C495.63,498.6,505.3,512.19,505.29,530.18Zm-16.53,2.3,1-.17c-1.11-5-1.51-10.37-3.52-15.08-3.08-7.22-9.78-12.27-17.62-11-6.31,1.06-14.8,5-17.05,9.82-3.48,7.5-4,17.06-3,25.43A19.49,19.49,0,0,0,469,558.71c10.06-.41,18.16-8.3,19.72-19.39A48.77,48.77,0,0,0,488.76,532.48Z" transform="translate(0)"/><path class="cls-1" d="M134.09,570.51c-22.89-.06-37-14.55-37-38,0-24,14-38.52,37.45-38.53,23.6,0,37.43,14.22,37.39,38.48S158,570.57,134.09,570.51Zm21-38.46c.05-12.89-3.64-20.53-11.7-24.19-15.08-6.86-28.93,3.53-29.95,22.46-.87,16.16,8.33,28.41,21.34,28.39C147.53,558.7,155,548.9,155.07,532.05Z" transform="translate(0)"/><path class="cls-1" d="M625.73,496.08c12.66,0,24.29-.12,35.92.09a27.93,27.93,0,0,1,8.94,1.78c14.85,5.47,22.72,23.67,18.89,43.28-3.57,18.33-13.51,27-31.47,27.28-10.55.16-21.1,0-32.28,0Zm15.9,60.65c11-.6,23.09,3.39,28.54-7.72s6.15-24-1.14-34.68c-6.2-9.05-17.27-6.69-27.4-6Z" transform="translate(0)"/><path class="cls-1" d="M980.77,567.46c-12.22,3.36-19.43.76-21.46-10.55-.26-1.46-2.31-3.69-3.61-3.74-8.9-.35-17.83-.43-26.72,0-1.59.07-4.19,2.69-4.39,4.34-1.45,11.86-9.53,12.3-20.53,10.33,3.88-10.33,7.7-20.5,11.5-30.67,4.46-11.95,8.6-24,13.59-35.75,1-2.42,5.26-5.2,7.88-5.08,5.89.25,15.56.66,16.93,3.74C963.84,522.11,972,544.85,980.77,567.46Zm-50.07-27h22.67l-11.6-31.6C937.73,520.36,934.41,529.85,930.7,540.42Z" transform="translate(0)"/><path class="cls-1" d="M317.84,496.49v11.16H277.67v15.48h37.25V535H278v21.57h41.1v11.23h-58V496.49Z" transform="translate(0)"/><path class="cls-1" d="M395.67,567.21c-22.56,8-24.4-12.26-34.75-21.38-6.25,7.8-11.32,16-18.42,22.07-3,2.52-10.27.42-17.22.42,8-11.51,15.54-21.54,22-32.13,1.72-2.8,1.75-8.09.08-10.92-5.63-9.55-12.38-18.52-18.8-27.84,19.84-7.56,23.45,9.25,32.37,18.67,9.23-8.81,12.17-26.64,32.21-18.6-6.27,9.19-13,18.18-18.61,27.75-1.65,2.81-1.68,8,0,10.8C381,546.67,388.47,556.75,395.67,567.21Z" transform="translate(0)"/><path class="cls-1" d="M73.08,540.83l13.49,4c-2.32,17.63-17.78,25.2-35.53,23.67-16.9-1.46-29.74-15-30.44-32.65-.93-23.48,9.35-38.64,28.19-41.54,19.12-3,32.84,4.39,37.91,20.65-7.08,2.33-13,5.08-18.86-3.69-6.2-9.18-22.18-6.85-27.42,3.4-5.51,10.78-5.85,22.47.23,32.85,2.51,4.29,9.4,8.31,14.52,8.57,4.6.23,9.78-4.52,14.14-7.76C71.19,547,71.65,543.85,73.08,540.83Z" transform="translate(0)"/><path class="cls-1" d="M796.64,497.16c-8.66,22.78-17,45.44-26.18,67.81-.88,2.13-6.73,3.35-10.24,3.3-3,0-7.85-1.85-8.73-4-8.91-22.09-17.17-44.42-25.63-66.74,15.78-3.52,15.85-3.5,20.85,9.9,4.76,12.77,9.48,25.55,15,40.38,5.23-14.71,10.54-27,13.87-39.81C778.4,497.08,784.18,493.53,796.64,497.16Z" transform="translate(0)"/><path class="cls-1" d="M702.45,496.27h14.63v71.66H702.45Z" transform="translate(0)"/><path class="cls-1" d="M404.24,496.46h14.59v71.36H404.24Z" transform="translate(0)"/><path class="cls-1" d="M819.06,568.18H804.33V496.51h14.73Z" transform="translate(0)"/><path class="cls-1" d="M481.55,473.59c-7.39,5.63-9.57,16.84-22.34,14C464.45,471.3,464.69,471.14,481.55,473.59Z" transform="translate(0)"/><path d="M488.76,532.48a48.77,48.77,0,0,1-.05,6.84c-1.56,11.09-9.66,19-19.72,19.39a19.49,19.49,0,0,1-20.38-17.18c-1-8.37-.5-17.93,3-25.43,2.25-4.85,10.74-8.76,17.05-9.82,7.84-1.32,14.54,3.73,17.62,11,2,4.71,2.41,10,3.52,15.08Z" transform="translate(0)"/><path d="M155.07,532.05c-.08,16.85-7.54,26.65-20.31,26.66-13,0-22.21-12.23-21.34-28.39,1-18.93,14.87-29.32,30-22.46C151.43,511.52,155.12,519.16,155.07,532.05Z" transform="translate(0)"/><path d="M641.63,556.73V508.36c10.13-.72,21.2-3.08,27.4,6,7.29,10.64,6.59,23.56,1.14,34.68S652.61,556.13,641.63,556.73Z" transform="translate(0)"/><path d="M930.7,540.42c3.71-10.57,7-20.06,11.07-31.6l11.6,31.6Z" transform="translate(0)"/></svg>